<?xml version="1.0" encoding="UTF-8"?>
<!DOCTYPE svg PUBLIC "-//W3C//DTD SVG 1.1//EN" "http://www.w3.org/Graphics/SVG/1.1/DTD/svg11.dtd">
<!-- Creator: CorelDRAW -->
<svg xmlns="http://www.w3.org/2000/svg" xml:space="preserve" width="4.95019in" height="2.34471in" version="1.1" style="shape-rendering:geometricPrecision; text-rendering:geometricPrecision; image-rendering:optimizeQuality; fill-rule:evenodd; clip-rule:evenodd"
viewBox="0 0 834.81 395.42"
 xmlns:xlink="http://www.w3.org/1999/xlink"
 xmlns:xodm="http://www.corel.com/coreldraw/odm/2003">
 <defs>
  <style type="text/css">
   <![CDATA[
    .fil0 {fill:#FAD605}
   ]]>
  </style>
 </defs>
 <g id="Layer_x0020_1">
  <metadata id="CorelCorpID_0Corel-Layer"/>
  <g id="_2781298324864">
   <path class="fil0" d="M4.51 0.39l0.18 -0.01 0.15 -0.38c0,4.07 -0.18,5.22 3.94,5.45 -2.32,0.52 -2.67,1.9 -3.35,3.75 -0.68,1.87 -0.66,1.12 -1.16,0.28 -0.98,-1.66 -2.3,-3.15 -4.21,-3.59 0,0 -0.17,-0.25 0.01,-0.28 2.6,-0.51 4.43,-2.39 4.43,-5.23z"/>
   <path class="fil0" d="M55.24 143.02l0.24 -0.01 0.21 -0.52c0,5.52 -0.24,7.09 5.35,7.39 -3.15,0.71 -3.63,2.57 -4.54,5.09 -0.92,2.54 -0.9,1.52 -1.57,0.38 -1.33,-2.25 -3.12,-4.27 -5.71,-4.87 0,0 -0.23,-0.33 0.02,-0.38 3.53,-0.69 6.01,-3.24 6.01,-7.09z"/>
   <path class="fil0" d="M26.25 252.61l0.18 -0.01 0.15 -0.38c0,4.07 -0.18,5.22 3.94,5.45 -2.32,0.52 -2.67,1.9 -3.35,3.75 -0.68,1.87 -0.66,1.12 -1.16,0.28 -0.98,-1.66 -2.3,-3.15 -4.21,-3.59 0,0 -0.17,-0.25 0.01,-0.28 2.6,-0.51 4.43,-2.39 4.43,-5.22z"/>
   <path class="fil0" d="M75.37 359.81l0.18 -0.01 0.15 -0.38c0,4.07 -0.18,5.22 3.94,5.45 -2.32,0.52 -2.67,1.9 -3.35,3.75 -0.68,1.87 -0.66,1.12 -1.16,0.28 -0.98,-1.66 -2.3,-3.15 -4.21,-3.59 0,0 -0.17,-0.25 0.01,-0.28 2.6,-0.51 4.43,-2.39 4.43,-5.22z"/>
   <path class="fil0" d="M319.85 14.59l0.24 -0.01 0.21 -0.52c0,5.52 -0.24,7.09 5.35,7.4 -3.15,0.71 -3.63,2.57 -4.54,5.09 -0.92,2.54 -0.9,1.52 -1.57,0.38 -1.33,-2.25 -3.12,-4.27 -5.71,-4.87 0,0 -0.23,-0.33 0.02,-0.38 3.53,-0.69 6.01,-3.24 6.01,-7.09z"/>
   <path class="fil0" d="M447.87 174.63l0.24 -0.01 0.21 -0.52c0,5.52 -0.24,7.09 5.35,7.4 -3.15,0.71 -3.63,2.57 -4.54,5.09 -0.92,2.54 -0.9,1.52 -1.57,0.38 -1.33,-2.25 -3.12,-4.27 -5.71,-4.87 0,0 -0.23,-0.33 0.02,-0.38 3.53,-0.69 6.01,-3.24 6.01,-7.09z"/>
   <path class="fil0" d="M291.55 266.68l0.18 -0.01 0.15 -0.38c0,4.07 -0.18,5.22 3.94,5.45 -2.32,0.52 -2.67,1.9 -3.35,3.75 -0.68,1.87 -0.66,1.12 -1.16,0.28 -0.98,-1.66 -2.3,-3.15 -4.21,-3.59 0,0 -0.17,-0.25 0.01,-0.28 2.6,-0.51 4.43,-2.39 4.43,-5.23z"/>
   <path class="fil0" d="M260.28 368.03l0.18 -0.01 0.15 -0.38c0,4.07 -0.18,5.22 3.94,5.45 -2.32,0.52 -2.67,1.9 -3.35,3.75 -0.68,1.87 -0.66,1.12 -1.16,0.28 -0.98,-1.66 -2.3,-3.14 -4.21,-3.59 0,0 -0.17,-0.25 0.01,-0.28 2.6,-0.51 4.43,-2.39 4.43,-5.23z"/>
   <path class="fil0" d="M472.27 20.85l0.18 -0.01 0.15 -0.38c0,4.07 -0.18,5.22 3.94,5.45 -2.32,0.52 -2.67,1.9 -3.35,3.75 -0.68,1.87 -0.66,1.12 -1.16,0.28 -0.98,-1.66 -2.3,-3.15 -4.21,-3.59 0,0 -0.17,-0.25 0.01,-0.28 2.6,-0.51 4.43,-2.39 4.43,-5.23z"/>
   <path class="fil0" d="M645.62 116.35l0.18 -0.01 0.15 -0.38c0,4.07 -0.18,5.22 3.94,5.45 -2.32,0.52 -2.67,1.9 -3.35,3.75 -0.68,1.87 -0.66,1.12 -1.16,0.28 -0.98,-1.66 -2.3,-3.14 -4.21,-3.59 0,0 -0.17,-0.25 0.01,-0.28 2.6,-0.51 4.43,-2.39 4.43,-5.23z"/>
   <path class="fil0" d="M435.3 258.68l0.28 -0.01 0.25 -0.6c0,6.48 -0.28,8.31 6.27,8.67 -3.69,0.83 -4.25,3.02 -5.32,5.97 -1.08,2.98 -1.05,1.78 -1.84,0.44 -1.56,-2.64 -3.66,-5 -6.7,-5.71 0,0 -0.27,-0.39 0.02,-0.45 4.14,-0.81 7.05,-3.8 7.05,-8.31z"/>
   <path class="fil0" d="M599.67 379.53l0.28 -0.01 0.25 -0.6c0,6.48 -0.28,8.31 6.27,8.67 -3.69,0.83 -4.25,3.02 -5.32,5.97 -1.08,2.98 -1.05,1.78 -1.84,0.44 -1.56,-2.64 -3.66,-5 -6.7,-5.71 0,0 -0.27,-0.39 0.02,-0.45 4.14,-0.81 7.05,-3.8 7.05,-8.31z"/>
   <path class="fil0" d="M781.42 17.37l0.18 -0.01 0.15 -0.38c0,4.07 -0.18,5.22 3.94,5.45 -2.32,0.52 -2.67,1.9 -3.35,3.75 -0.68,1.87 -0.66,1.12 -1.16,0.28 -0.98,-1.66 -2.3,-3.15 -4.21,-3.59 0,0 -0.17,-0.24 0.01,-0.28 2.6,-0.51 4.43,-2.39 4.43,-5.23z"/>
   <path class="fil0" d="M830.53 124.57l0.18 -0.01 0.15 -0.38c0,4.07 -0.18,5.22 3.94,5.45 -2.32,0.52 -2.67,1.9 -3.35,3.75 -0.68,1.87 -0.66,1.12 -1.16,0.28 -0.98,-1.66 -2.3,-3.15 -4.21,-3.59 0,0 -0.17,-0.25 0.01,-0.28 2.6,-0.51 4.43,-2.39 4.43,-5.22z"/>
   <path class="fil0" d="M784.16 222.83l0.18 -0.01 0.15 -0.38c0,4.07 -0.18,5.22 3.94,5.45 -2.32,0.52 -2.67,1.9 -3.35,3.75 -0.68,1.87 -0.66,1.12 -1.16,0.28 -0.98,-1.66 -2.3,-3.15 -4.21,-3.59 0,0 -0.17,-0.25 0.01,-0.28 2.6,-0.51 4.43,-2.39 4.43,-5.23z"/>
   <path class="fil0" d="M796.44 332.87l0.48 -0.02 0.41 -1.02c0,10.9 -0.47,13.99 10.56,14.6 -6.22,1.4 -7.16,5.08 -8.96,10.06 -1.82,5.01 -1.78,3 -3.1,0.74 -2.62,-4.45 -6.16,-8.42 -11.28,-9.62 0,0 -0.45,-0.66 0.03,-0.75 6.97,-1.36 11.87,-6.4 11.87,-14z"/>
  </g>
 </g>
</svg>
